<svg version="1.1" id="Layer_1" xmlns="http://www.w3.org/2000/svg" xmlns:xlink="http://www.w3.org/1999/xlink" x="0px" y="0px"
	 width="44px" height="67px" viewBox="0 0 60.293 100" enable-background="new 0 0 60.293 100" xml:space="preserve">
<path d="M58.205,31.953c0-15.226-12.349-27.577-27.603-27.577C15.35,4.376,3,16.727,3,31.953c0,4.369,1.039,8.483,2.836,12.154
	L5.812,44.11L30.601,96l0.001-0.002V96l24.785-51.89l-0.02-0.003C57.167,40.436,58.205,36.323,58.205,31.953z M30.603,17.118
	c8.209,0,14.861,6.657,14.861,14.865c0,3.487-1.213,6.69-3.226,9.227c-2.721,3.427-6.919,5.635-11.637,5.635
	s-8.912-2.208-11.638-5.635c-2.015-2.537-3.228-5.74-3.228-9.227C15.738,23.775,22.394,17.118,30.603,17.118z"/>
</svg>