<svg xmlns="http://www.w3.org/2000/svg" xmlns:xlink="http://www.w3.org/1999/xlink" version="1.1" id="Layer_1" x="0px" y="0px" width="64px" height="57px" viewBox="0 0 100 85.71" enable-background="new 0 0 100 85.71" xml:space="preserve">
<polygon points="4.675,63.175 28.841,39.005 49.45,58.555 89.001,19.399 91.116,23.491 96.452,6 77.999,10.373 
	82.301,12.701 49.435,44.934 28.839,25.818 4.675,49.164 "/>
<polygon points="4.514,74.916 13.683,65.869 13.683,90.5 4.514,90.5 "/>
<polygon points="66.2,55.383 75.368,46.336 75.368,90.5 66.2,90.5 "/>
<polygon points="86.809,35.226 89.534,32.588 95.979,42.767 95.979,90.5 86.809,90.5 "/>
<polygon points="45.518,65.725 50.044,70.45 54.687,65.869 54.687,90.5 45.518,90.5 "/>
<polygon points="28.978,51.362 24.023,56.318 24.023,90.5 33.861,90.5 33.861,55.958 "/>
</svg>