<svg xmlns="http://www.w3.org/2000/svg" xmlns:xlink="http://www.w3.org/1999/xlink" version="1.1" id="Layer_1" x="0px" y="0px" width="65px" height="72px" viewBox="0 0 100 100" enable-background="new 0 0 100 100" xml:space="preserve">
<path d="M86.286,63.73c-2.386,4.642-5.946,8.683-9.04,8.683c-2.988,0-6.581-4.056-9.002-8.709c-5.772,3.182-9.688,9.324-9.688,16.38  c0,10.321,10.696,13.002,18.689,13.002c8.295,0,18.685-2.681,18.685-13.002C95.931,73.047,92.036,66.915,86.286,63.73z"/>
<path d="M58.067,20.851c0,11.511-11.595,31.861-20.849,31.861c-8.917,0-20.853-20.35-20.853-31.861C16.366,9.335,25.704,0,37.219,0  C48.732,0,58.067,9.335,58.067,20.851z"/>
<path d="M90.329,45.13c0,7.226-7.275,19.994-13.083,19.994c-5.597,0-13.088-12.768-13.088-19.994  c0-7.229,5.858-13.087,13.088-13.087C84.47,32.043,90.329,37.901,90.329,45.13z"/>
<path d="M50.452,81.76c0-10.118,5.613-18.923,13.888-23.483c0,0-4.838-6.888-11.083-10.347c-4.23,8.234-10.547,15.401-16.038,15.401  c-5.302,0-11.671-7.192-15.964-15.445C11.013,53.523,4.069,64.42,4.069,76.939C4.069,95.247,23.043,100,37.219,100  c6.97,0,14.772-1.071,21.055-4.138C53.686,92.997,50.452,88.537,50.452,81.76z"/>
</svg>