<svg version="1.1" id="Layer_1" xmlns="http://www.w3.org/2000/svg" xmlns:xlink="http://www.w3.org/1999/xlink" x="0px" y="0px"
	 width="15px" height="15px" viewBox="0 0 300 300" enable-background="new 0 0 300 300" xml:space="preserve">
<path fill="#2CAAE1" d="M298.5,77.891c-10.926,4.847-22.672,8.121-34.996,9.595c12.579-7.541,22.243-19.482,26.791-33.711
	c-11.774,6.984-24.812,12.054-38.694,14.786c-11.114-11.843-26.95-19.241-44.476-19.241c-33.649,0-60.934,27.281-60.934,60.932
	c0,4.775,0.539,9.426,1.577,13.886c-50.642-2.542-95.539-26.8-125.593-63.665c-5.245,8.999-8.25,19.465-8.25,30.632
	c0,21.141,10.757,39.791,27.107,50.717c-9.988-0.316-19.384-3.058-27.599-7.621c-0.006,0.254-0.006,0.509-0.006,0.767
	c0,29.521,21.003,54.148,48.878,59.747c-5.113,1.394-10.496,2.137-16.052,2.137c-3.927,0-7.744-0.383-11.465-1.093
	c7.755,24.206,30.257,41.825,56.922,42.315c-20.854,16.345-47.126,26.084-75.676,26.084c-4.918,0-9.769-0.288-14.535-0.853
	c26.966,17.289,58.995,27.38,93.405,27.38c112.078,0,173.368-92.849,173.368-173.37c0-2.642-0.059-5.269-0.178-7.884
	C280.001,100.842,290.331,90.109,298.5,77.891z"/>
</svg>