<svg version="1.1" id="Layer_1" xmlns="http://www.w3.org/2000/svg" xmlns:xlink="http://www.w3.org/1999/xlink" x="0px" y="0px"
	 width="18px" height="15px" viewBox="0 0 105.255 90.169" enable-background="new 0 0 105.255 90.169"
	 xml:space="preserve">
<path fill="#FFFFFF" stroke="#010101" stroke-width="0.2892" d="M78.33,38.442"/>
<path fill="#5A739D" d="M60.528,4.041c1.015,0,2.215,0.225,3.632,0.815c0,0,4.459,8.375,4.91,15.034c0,0-1.998,13.732-3.083,18.033
	c0,0,23.825,0,29.9,0c8.864,0,5.823,11.293-3.045,11.293c8.868,0,5.823,11.311-3.041,11.311c8.864,0,5.816,11.293-3.052,11.293
	c8.868,0,5.82,11.301-3.045,11.301c-4.646,0-23.786,0-37.07,0c-2.859,0-5.463-3.259-7.569-3.259c-3.485,0-5.677,0-5.677,0
	s-10.796-8.595-2.016-29.784c0,0,7.359-4.29,10.32-6.811c2.961-2.513,15.065-22.092,15.065-24.538S56.482,5.693,56.482,5.693
	S57.759,4.041,60.528,4.041 M60.528,0L60.528,0c-3.507,0-6.093,1.729-7.244,3.198c-0.57,0.756-0.868,1.658-0.854,2.6
	c0,0.099,0.245,9.568,0.273,12.528c-1.229,3.542-11.339,19.794-13.651,21.873c-2.188,1.868-7.759,5.231-9.719,6.383
	c-0.759,0.441-1.368,1.134-1.7,1.949c-9.83,23.724,2.69,34.071,3.227,34.502c0.73,0.577,1.603,0.886,2.529,0.886h5.383
	c0.312,0.144,0.91,0.528,1.316,0.791c1.613,1.032,3.82,2.453,6.547,2.453h37.07c7.427,0,12.417-5.739,12.417-11.091
	c0-1.228-0.252-2.376-0.725-3.422c2.387-2.139,3.763-5.061,3.763-7.871c0-1.228-0.242-2.376-0.715-3.422
	c2.384-2.142,3.759-5.061,3.759-7.889c0-1.211-0.245-2.372-0.721-3.404c2.387-2.143,3.772-5.061,3.772-7.892
	c0-2.362-0.941-4.486-2.628-6.002c-1.169-1.032-3.293-2.285-6.74-2.285H70.925c1.018-5.648,2.1-12.994,2.155-13.407
	c0.035-0.29,0.053-0.573,0.028-0.864c-0.508-7.433-5.176-16.283-5.379-16.647c-0.438-0.825-1.138-1.477-1.998-1.848
	C63.943,0.388,62.197,0,60.528,0L60.528,0z"/>
<path fill="#5A739D" d="M32.139,44.664v41.449H7.296L4.035,44.664H32.139 M32.139,40.608H4.035c-1.116,0-2.201,0.473-2.961,1.315
	c-0.777,0.822-1.151,1.929-1.061,3.049l3.252,41.466c0.164,2.089,1.91,3.73,4.031,3.73h24.843c2.236,0,4.042-1.816,4.042-4.056
	V44.664C36.181,42.421,34.375,40.608,32.139,40.608L32.139,40.608z"/>
<g>
	<polygon fill="#778BB6" points="7.296,86.113 32.139,86.113 32.139,44.664 4.035,44.664 	"/>
</g>
<g opacity="0.1">
	<g>
		<rect x="4.035" y="44.664" fill="#FFFFFF" width="28.104" height="5.264"/>
	</g>
	<path fill="#FFFFFF" d="M29.707,47.086v36.605H9.54L6.666,47.086H29.707 M32.139,44.664H4.035l3.262,41.449h24.843V44.664
		L32.139,44.664z"/>
</g>
<g>
	<path opacity="0.15" fill="#555655" d="M28.031,79.846c0-1.606-1.309-2.901-2.908-2.901c-1.613,0-2.918,1.295-2.918,2.901
		c0,1.62,1.305,2.922,2.918,2.922C26.722,82.768,28.031,81.466,28.031,79.846z"/>
	<g>
		<g>
			<path fill="#ECEFF0" d="M27.708,79.537c0-1.606-1.305-2.918-2.908-2.918c-1.609,0-2.918,1.312-2.918,2.918
				c0,1.603,1.309,2.919,2.918,2.919C26.404,82.456,27.708,81.14,27.708,79.537z"/>
		</g>
		<g>
			<path fill="#F2F7F8" d="M27.24,79.537c0-1.34-1.099-2.436-2.439-2.436c-1.344,0-2.432,1.096-2.432,2.436
				c0,1.341,1.088,2.433,2.432,2.433C26.141,81.97,27.24,80.878,27.24,79.537z"/>
		</g>
		<path opacity="0.5" fill="#FFFFFF" d="M25.312,79.051c0-0.721-0.581-1.298-1.295-1.298s-1.288,0.577-1.288,1.298
			c0,0.725,0.574,1.295,1.288,1.295S25.312,79.775,25.312,79.051z"/>
		<g>
			<path fill="#778BB6" d="M24.497,79.064c0-0.133-0.105-0.234-0.238-0.234c-0.122,0-0.234,0.102-0.234,0.234
				c0,0.119,0.112,0.221,0.234,0.221C24.391,79.285,24.497,79.184,24.497,79.064z"/>
			<path fill="#778BB6" d="M24.497,80.216c0-0.133-0.105-0.237-0.238-0.237c-0.122,0-0.234,0.104-0.234,0.237
				c0,0.13,0.112,0.238,0.234,0.238C24.391,80.454,24.497,80.346,24.497,80.216z"/>
			<path fill="#778BB6" d="M25.567,79.064c0-0.133-0.098-0.234-0.234-0.234c-0.126,0-0.224,0.102-0.224,0.234
				c0,0.119,0.098,0.221,0.224,0.221C25.469,79.285,25.567,79.184,25.567,79.064z"/>
			<path fill="#778BB6" d="M25.567,80.216c0-0.133-0.098-0.237-0.234-0.237c-0.126,0-0.224,0.104-0.224,0.237
				c0,0.13,0.098,0.238,0.224,0.238C25.469,80.454,25.567,80.346,25.567,80.216z"/>
		</g>
	</g>
</g>
</svg>